<?xml version="1.0"?>
<svg xmlns="http://www.w3.org/2000/svg" xmlns:xlink="http://www.w3.org/1999/xlink" xmlns:svgjs="http://svgjs.com/svgjs" version="1.1" width="512" height="512" x="0" y="0" viewBox="0 0 100 100" style="enable-background:new 0 0 512 512" xml:space="preserve" class=""><g>
<g xmlns="http://www.w3.org/2000/svg">
	<circle fill="#dbd8dd" cx="50" cy="50" r="48" data-original="#e05b49" style="" class=""/>
	<path opacity="0.1" d="M97.9399414,52.3790054L77.5,31.9391861v-0.0499268l-0.0400391,0.0098877L50,22.4991226   L22.5400391,31.899147L22.5,31.8892593v36.1098633l29.9390869,29.939209   C77.0273438,96.7076187,96.7391357,76.9749527,97.9399414,52.3790054z" fill="#000000" data-original="#000000" style="" class=""/>
	<g>
		<polygon fill="#ffffff" points="49.9997101,41.3332253 22.5000019,31.8863659 22.5000019,67.9960175 50,77.5   " data-original="#fcd462" style="" class=""/>
		<polygon fill="#f1f1f1" points="49.9997101,41.3332253 77.5,31.8863659 77.5,67.9960175 50,77.5   " data-original="#e5b053" style="" class=""/>
		<polygon fill="#ffffff" points="49.9997101,22.4999981 22.5000019,31.9166107 49.9997101,41.3332253 77.5,31.9166107   " data-original="#f6c358" style="" class=""/>
		<polygon fill="#a9a9a9" points="60.3319702,26.0381317 32.8323364,35.4546967 39.6687622,37.7950897 67.1676636,28.3787689   " data-original="#ce7a41" style="" class=""/>
		<polygon fill="#b9b9b9" points="39.6682625,37.7984085 39.6682625,46.5584183 35.5282478,44.7384109 32.8281746,43.5484085     32.8281746,35.4584427 35.5282478,36.3784256   " data-original="#dc8744" style="" class=""/>
	</g>
</g>
</g></svg>
