<svg height="512" viewBox="0 0 128 128" width="512" xmlns="http://www.w3.org/2000/svg"><g id="Circle_Grid" data-name="Circle Grid"><circle cx="64" cy="64" fill="#f6c863" r="64"/></g><g id="icon"><path d="m59.375 42.547h8v46.888h-8z" fill="#575b6d"/><path d="m98.18 90.435h-8v-24.388h-52.36v24.388h-8v-28.388a4 4 0 0 1 4-4h60.36a4 4 0 0 1 4 4z" fill="#575b6d"/><circle cx="33.82" cy="90.435" fill="#2cbfae" r="11.32"/><circle cx="64" cy="90.435" fill="#69b0ee" r="11.32"/><circle cx="94.18" cy="90.435" fill="#ef5261" r="11.32"/><path d="m75.4 43.547h-24.052a1 1 0 0 1 -.786-1.618l12.032-15.3a1 1 0 0 1 1.572 0l12.023 15.3a1 1 0 0 1 -.789 1.618z" fill="#575b6d"/></g></svg>